<svg width="240" height="240" viewBox="0 0 240 240" fill="none" xmlns="http://www.w3.org/2000/svg">
<path d="M132.037 100.414C130.881 68.5666 126.354 35.058 105.07 10.2274C97.389 13.264 89.5846 15.8167 82.0774 19.3278C51.271 33.7357 29.4284 57.4208 18.9691 90.0506C8.47013 122.805 7.0845 160.012 18.4863 192.68C22.6537 204.621 28.6269 218.165 39.9186 225.219C49.3014 231.081 61.0616 230.558 71.2312 227.708C90.2082 222.389 107.502 209.753 117.499 192.68M132.037 100.414C132.228 105.697 132.387 111.075 132.439 116.5M132.037 100.414L132.439 116.5M131.238 86.4694C147.217 88.423 166.578 93.5782 182.33 101.925C197.839 110.144 204.771 114.676 212.885 120.859C214.744 122.275 229.5 135.794 229.5 140.178C229.5 141.793 223.318 157.953 209.021 169.544C201.293 175.81 192.02 181.392 182.33 187.319C170.354 194.644 150.734 199.526 136.642 201.781C126.649 203.38 120.027 204.342 110.19 202.937L117.499 192.68M132.439 116.5C132.502 123.024 132.411 129.616 132.037 136.19M132.037 136.19C131.735 141.486 131.251 146.771 130.515 152M132.037 136.19L130.515 152M130.515 152C129.68 157.942 128.521 163.811 126.941 169.544C125.059 176.373 122.578 183.007 119.333 189.338C118.753 190.47 118.141 191.584 117.499 192.68" stroke="black" stroke-width="7" stroke-linecap="round"/>
<path d="M58.9365 51.6805C47.4931 68.4055 42.5512 88.9493 40.1415 108.809C37.1055 133.829 34.4902 158.53 30.1868 183.394" stroke="black" stroke-linecap="round"/>
<path d="M85.0118 45.6631C70.4598 67.2705 57.7083 90.7808 53.5876 116.535" stroke="black" stroke-linecap="round"/>
<path d="M87.6862 59.0351C80.0666 89.1018 77.5301 120.216 70.0426 150.262C64.7405 171.538 52.1465 188.013 39.5471 205.458" stroke="black" stroke-linecap="round"/>
<path d="M104.401 51.0119C101.779 73.5344 94.3824 95.4257 88.3547 117.203" stroke="black" stroke-linecap="round"/>
<path d="M109.75 93.1336C106.946 124.821 100.187 154.481 88.3547 184.063" stroke="black" stroke-linecap="round"/>
<path d="M113.762 159.325C113.546 164.273 111.293 167.883 108.71 172.177C100.509 185.813 90.6507 197.607 81.0002 210.138" stroke="black" stroke-linecap="round"/>
<path d="M132.676 107.368C141.309 108.862 150.004 110.661 158.48 112.851C166.386 114.893 173.873 117.725 181.42 120.805C185.961 122.658 189.225 124.117 193.778 125.728C205.357 129.827 191.738 124.857 201.173 127.847" stroke="black" stroke-linecap="round"/>
<path d="M141.15 141.97C149.222 141.566 157.248 140.643 165.336 140.42C175.764 140.133 186.173 140.743 196.583 141.264" stroke="black" stroke-linecap="round"/>
<path d="M129.424 163.748C141.812 163.396 153.351 159.871 165.532 157.583C177.374 155.359 188.912 152.039 200.467 148.678" stroke="black" stroke-linecap="round"/>
<path d="M119.764 190.023C125.6 188.882 132.433 187.906 138.227 186.575C149.696 183.94 161.265 181.762 172.75 179.219" stroke="black" stroke-linecap="round"/>
<path d="M149.271 176.571C163.582 172.96 177.971 169.678 192.346 166.332" stroke="black" stroke-linecap="round"/>
</svg>
