<svg width="240" height="241" viewBox="0 0 240 241" fill="none" xmlns="http://www.w3.org/2000/svg">
<path d="M82.0774 19.8763C89.5846 16.3652 97.389 13.8125 105.07 10.7759C123.265 32.0028 129.214 59.5716 131.279 87.0229C147.25 88.9805 166.592 94.134 182.33 102.474C197.839 110.692 204.771 115.225 212.885 121.407C214.744 122.823 229.5 136.342 229.5 140.727C229.5 142.342 223.318 158.501 209.021 170.093C201.293 176.359 192.02 181.94 182.33 187.867C170.354 195.192 150.734 200.075 136.642 202.329C126.649 203.928 120.027 204.89 110.19 203.485C100.075 215.342 86.1751 224.068 71.2312 228.256C61.0616 231.106 49.3014 231.629 39.9186 225.767C28.6269 218.713 22.6537 205.17 18.4863 193.229C7.0845 160.56 8.47013 123.353 18.9691 90.5991C29.4284 57.9692 51.271 34.2842 82.0774 19.8763Z" fill="white"/>
<path d="M131.238 87.0178C147.217 88.9715 166.578 94.1267 182.33 102.474C197.839 110.692 204.771 115.225 212.885 121.407C214.744 122.823 229.5 136.342 229.5 140.727C229.5 142.342 223.318 158.501 209.021 170.093C201.293 176.359 192.02 181.94 182.33 187.867C170.354 195.192 150.734 200.075 136.642 202.329C126.649 203.928 120.027 204.89 110.19 203.485M105.07 10.7759C97.389 13.8125 89.5846 16.3652 82.0774 19.8763C51.271 34.2842 29.4284 57.9693 18.9691 90.5991C8.47013 123.353 7.0845 160.56 18.4863 193.229C22.6537 205.17 28.6269 218.713 39.9186 225.767C49.3014 231.629 61.0616 231.106 71.2312 228.256C91.4268 222.596 109.716 208.648 119.333 189.886C133.152 162.927 133.107 130.46 132.037 100.962C130.881 69.1151 126.354 35.6065 105.07 10.7759Z" stroke="black" stroke-width="7" stroke-linecap="round"/>
<path d="M58.9365 52.229C47.4931 68.954 42.5512 89.4978 40.1415 109.357C37.1055 134.377 34.4902 159.079 30.1868 183.943" stroke="black" stroke-linecap="round"/>
<path d="M85.0118 46.2116C70.4598 67.819 57.7083 91.3293 53.5876 117.083" stroke="black" stroke-linecap="round"/>
<path d="M87.6862 59.5836C80.0666 89.6503 77.5301 120.764 70.0426 150.81C64.7405 172.087 52.1465 188.561 39.5471 206.007" stroke="black" stroke-linecap="round"/>
<path d="M104.401 51.5604C101.779 74.0829 94.3824 95.9742 88.3547 117.752" stroke="black" stroke-linecap="round"/>
<path d="M109.75 93.6821C106.946 125.37 100.187 155.03 88.3547 184.611" stroke="black" stroke-linecap="round"/>
<path d="M113.762 159.873C113.546 164.822 111.293 168.431 108.71 172.725C100.509 186.361 90.6507 198.156 81.0002 210.687" stroke="black" stroke-linecap="round"/>
<path d="M132.676 107.917C141.309 109.411 150.004 111.21 158.48 113.399C166.386 115.441 173.873 118.273 181.42 121.353C185.961 123.206 189.225 124.665 193.778 126.277C205.357 130.375 191.738 125.405 201.173 128.395" stroke="black" stroke-linecap="round"/>
<path d="M141.15 142.518C149.222 142.115 157.248 141.191 165.336 140.969C175.764 140.681 186.173 141.292 196.583 141.812" stroke="black" stroke-linecap="round"/>
<path d="M129.424 164.297C141.812 163.945 153.351 160.42 165.532 158.132C177.374 155.908 188.912 152.588 200.467 149.227" stroke="black" stroke-linecap="round"/>
<path d="M119.764 190.572C125.6 189.43 132.433 188.455 138.227 187.123C149.696 184.488 161.265 182.31 172.75 179.768" stroke="black" stroke-linecap="round"/>
<path d="M149.271 177.12C163.582 173.508 177.971 170.227 192.346 166.88" stroke="black" stroke-linecap="round"/>
</svg>
