<svg width="240" height="241" viewBox="0 0 240 241" fill="none" xmlns="http://www.w3.org/2000/svg">
<g clip-path="url(#clip0_4_29)">
<path d="M26.7778 192.734L12.2624 185.743L19.6634 176.374L19.6634 176.374C22.2755 173.067 25.7583 168.657 32.1127 167.411C37.4737 166.36 44.833 157.917 47.334 154.373L136.364 41.6622C139.034 38.8485 144.2 31.7414 144.985 25.6486C146.127 16.7823 148.746 12.9559 150.705 10.4757L157.106 2.10676L167.548 14.3824L180.806 20.8269L191.799 33.538L205.333 40.2002L214.121 51.1698L226.276 56.7436L219.595 65.3388C218.201 67.6692 214.957 71.0736 207.696 74.7363C200.957 78.1363 194.425 83.795 191.924 87.3389L102.894 200.05L102.858 200.089C100.168 202.923 95.7338 209.438 94.8242 216.499C93.7776 224.623 90.5124 228.756 88.5533 231.237L81.5877 240.055L73.3504 229.521L60.6438 223.512L51.0286 211.889L36.1174 204.139L26.7778 192.734Z" fill="white" stroke="black" stroke-width="7"/>
<path d="M18.7305 177.427L88.1761 232.281" stroke="black"/>
<path d="M151.513 9.32412L220.959 64.1786" stroke="black"/>
<path d="M33.0208 173.499C45.4325 179.126 73.9423 195.798 88.6875 217.47" stroke="black"/>
<path d="M149.776 25.6877C158.124 36.4589 180.945 60.3327 205.442 69.6583" stroke="black"/>
<path d="M62.6957 152.723C63.9611 151.726 65.1045 150.728 66.1258 149.728C67.1471 148.728 68.0252 147.833 68.76 147.043C69.6531 146.129 70.4091 145.233 71.0281 144.353C71.8651 143.272 72.8148 141.846 73.8772 140.075C74.9695 138.266 76.111 136.432 77.3018 134.575C78.4539 132.688 79.6234 130.939 80.8104 129.326C81.9886 127.644 83.1015 126.406 84.1489 125.612C85.1578 124.787 86.3167 124.048 87.6257 123.394C88.926 122.672 90.2867 122.151 91.7078 121.831C93.0903 121.481 94.4883 121.39 95.9019 121.558C97.2769 121.696 98.5927 122.19 99.8494 123.04C101.325 124.244 102.465 125.683 103.27 127.355C103.971 128.763 104.427 130.567 104.637 132.767C104.809 134.938 104.277 137.46 103.042 140.332C104.123 139.254 105.185 138.441 106.229 137.89C107.264 137.271 108.272 136.847 109.252 136.618C110.223 136.32 111.148 136.203 112.026 136.265C112.934 136.289 113.767 136.409 114.526 136.626C116.325 137.093 118.04 137.988 119.671 139.312C121.653 141.218 123.028 142.992 123.794 144.635C124.589 146.239 125.021 147.715 125.088 149.064C125.155 150.413 124.995 151.617 124.608 152.675C124.221 153.734 123.835 154.671 123.452 155.485C123.068 156.3 122.487 157.209 121.71 158.213C120.933 159.217 120.077 160.283 119.141 161.411C118.197 162.471 117.243 163.584 116.277 164.751C115.274 165.888 114.392 167.027 113.632 168.168C113.022 169.116 112.262 170.257 111.353 171.591C110.593 172.732 109.643 174.158 108.504 175.869C107.325 177.55 105.957 179.517 104.399 181.769C104.419 181.105 104.34 180.488 104.164 179.919C103.978 179.281 103.806 178.746 103.646 178.314C103.41 177.822 103.177 177.365 102.949 176.941C102.73 176.586 101.956 175.832 100.625 174.679C99.2952 173.525 97.6799 172.182 95.7793 170.649C93.8402 169.086 91.7509 167.437 89.5116 165.704C87.2636 163.901 85.0672 162.232 82.9226 160.695C80.7692 159.089 78.8369 157.717 77.1256 156.577C75.4057 155.369 74.1191 154.558 73.266 154.145C72.2759 153.748 71.2066 153.415 70.0583 153.143C69.0856 152.884 67.9504 152.715 66.6526 152.637C65.3847 152.52 64.0657 152.548 62.6957 152.723ZM78.0637 145.076C78.2182 145.196 78.7543 145.58 79.6722 146.229C80.4743 146.788 81.7011 147.676 83.3525 148.893C84.9953 150.042 87.3286 151.694 90.3526 153.85C91.5246 153.213 92.4886 152.447 93.2446 151.55C93.962 150.623 94.5661 149.764 95.0568 148.97C95.5986 148.031 96.0333 147.071 96.3609 146.089C96.7433 144.718 96.6761 143.369 96.1592 142.043C95.6723 140.678 94.9823 139.495 94.0894 138.495C93.1877 137.426 92.2287 136.591 91.2124 135.99C90.1575 135.358 89.2682 135.071 88.5446 135.128C87.3203 135.354 86.0773 135.843 84.8156 136.595C83.7507 137.253 82.6074 138.251 81.3855 139.59C80.155 140.86 79.0477 142.689 78.0637 145.076ZM105.29 166.619C107.13 165.759 108.584 164.878 109.653 163.976C110.721 163.074 111.54 162.257 112.108 161.523C112.765 160.674 113.217 159.85 113.464 159.053C113.684 158.051 113.774 156.978 113.733 155.834C113.683 154.623 113.388 153.529 112.846 152.554C112.295 151.51 111.488 150.638 110.425 149.938C109.322 149.208 107.84 148.771 105.977 148.625C104.521 148.671 103.138 149.021 101.829 149.675C100.687 150.272 99.505 151.241 98.2831 152.58C97.0912 153.88 96.0892 155.852 95.2771 158.496L105.29 166.619ZM114.367 123.072C114.285 122.699 113.95 122.255 113.362 121.738C112.766 121.152 112.152 120.43 111.52 119.571C110.919 118.673 110.413 117.571 110.003 116.266C109.593 114.96 109.541 113.314 109.845 111.326C110.119 109.377 110.672 107.706 111.504 106.312C112.336 104.918 113.335 103.747 114.502 102.798C115.669 101.849 116.931 101.097 118.287 100.541C119.673 99.9472 121.043 99.4945 122.395 99.1831C123.307 98.9627 124.341 99.0225 125.498 99.3626C126.617 99.6727 127.791 100.15 129.022 100.794C130.252 101.438 131.496 102.184 132.753 103.034C134.001 103.815 135.199 104.619 136.349 105.448C137.46 106.246 138.479 107.004 139.405 107.721C140.323 108.37 141.116 108.861 141.785 109.193C142.754 109.697 143.697 109.994 144.614 110.086C145.492 110.149 146.322 110.113 147.106 109.978C147.851 109.814 148.518 109.59 149.109 109.306C149.699 109.022 150.187 108.751 150.571 108.493C150.867 108.351 151.108 108.198 151.296 108.035C151.75 107.769 151.959 107.499 151.924 107.225C152.285 107.875 152.584 108.446 152.821 108.938C153.057 109.43 153.266 109.838 153.447 110.163C153.636 110.557 153.782 110.886 153.886 111.152C154.028 111.447 154.135 111.746 154.209 112.05C154.312 112.315 154.405 112.634 154.487 113.007C154.569 113.379 154.671 113.766 154.792 114.169C154.21 114.521 153.605 114.824 152.976 115.079C152.377 115.294 151.827 115.486 151.326 115.654C150.727 115.869 150.158 116.046 149.618 116.184C149.079 116.323 148.516 116.412 147.93 116.452C147.412 116.483 146.859 116.518 146.273 116.558C145.716 116.559 145.15 116.492 144.576 116.356C144.899 116.976 145.18 118.089 145.419 119.695C145.688 121.261 145.67 123.039 145.366 125.027C145.024 126.984 144.289 129.01 143.164 131.102C142.067 133.156 140.301 134.999 137.863 136.632C136.807 137.358 135.661 137.921 134.424 138.322C133.149 138.693 131.847 138.859 130.519 138.819C129.222 138.741 127.928 138.418 126.637 137.851C125.338 137.216 124.118 136.24 122.976 134.924C121.834 133.607 121.068 132.243 120.68 130.83C120.291 129.418 120.181 128.005 120.349 126.592C120.517 125.178 120.91 123.753 121.528 122.317C122.146 120.881 122.89 119.481 123.761 118.117C124.499 117.084 125.334 116.125 126.266 115.24C127.078 114.511 128.055 113.847 129.197 113.249C130.301 112.621 131.512 112.293 132.831 112.265C130.755 110.719 129.073 109.541 127.787 108.73C126.492 107.85 125.486 107.195 124.77 106.764C123.878 106.321 123.233 106.038 122.834 105.914C122.415 105.898 121.941 105.871 121.414 105.834C120.918 105.758 120.414 105.77 119.905 105.869C119.357 105.939 118.807 106.131 118.255 106.445C117.704 106.759 117.208 107.239 116.768 107.887C116.299 108.573 116.069 109.229 116.079 109.854C116.089 110.479 116.216 111.072 116.462 111.633C116.698 112.125 117.033 112.569 117.467 112.967C117.9 113.364 118.321 113.659 118.728 113.85C119.019 113.952 119.36 114.031 119.75 114.086C120.101 114.111 120.516 114.093 120.996 114.032C121.475 113.971 121.991 113.783 122.543 113.469C121.971 114.447 121.455 115.313 120.994 116.068C120.494 116.793 120.089 117.436 119.778 117.998C119.406 118.637 119.076 119.183 118.786 119.638C118.495 120.093 118.184 120.654 117.851 121.323C117.54 121.885 117.158 122.577 116.706 123.401C116.254 124.224 115.751 125.193 115.197 126.307C115.106 125.867 115.019 125.46 114.937 125.087C114.816 124.685 114.719 124.332 114.646 124.028C114.533 123.694 114.441 123.376 114.367 123.072ZM127.985 119.72C127.485 120.445 127.121 121.275 126.892 122.209C126.624 123.113 126.551 124.045 126.673 125.004C126.756 125.933 126.996 126.859 127.392 127.784C127.78 128.639 128.379 129.381 129.189 130.009C130 130.636 130.864 130.996 131.781 131.089C132.688 131.112 133.59 130.945 134.484 130.588C135.408 130.192 136.208 129.638 136.883 128.925C137.588 128.174 138.123 127.323 138.489 126.371C138.787 125.429 138.9 124.405 138.829 123.3C138.72 122.166 138.497 121.098 138.161 120.096C137.786 119.065 137.326 118.184 136.78 117.453C136.196 116.692 135.613 116.209 135.03 116.005C133.787 115.536 132.554 115.693 131.331 116.475C130.069 117.228 128.954 118.309 127.985 119.72ZM130.931 92.824C131.538 92.1203 132.065 91.4789 132.514 90.8997C132.953 90.2521 133.318 89.701 133.609 89.2464C133.959 88.7146 134.264 88.2407 134.524 87.8247C134.895 87.1858 135.262 86.5126 135.624 85.8052C135.966 85.2049 136.303 84.5704 136.635 83.9015C136.959 83.1642 137.249 82.4313 137.504 81.7027C137.904 82.3827 138.256 82.9644 138.561 83.4476C138.866 83.9309 139.144 84.3307 139.393 84.647C139.65 85.0319 139.895 85.314 140.127 85.4933C140.367 85.7412 140.68 86.0146 141.067 86.3135C141.693 86.8603 142.755 87.6823 144.252 88.7796C144.069 85.4268 144.018 82.7011 144.099 80.6025C144.21 78.4652 144.309 76.782 144.396 75.5527C144.525 74.1092 144.703 73.0425 144.928 72.3525C145.803 70.7446 147.102 69.7439 148.827 69.3504C149.572 69.186 150.437 69.1455 151.422 69.229C152.369 69.2826 153.483 69.5585 154.765 70.0567C156.046 70.5549 157.48 71.2948 159.067 72.2762C160.615 73.2278 162.348 74.5387 164.266 76.2089C163.716 77.0795 163.225 77.8728 162.794 78.589C162.393 79.2665 162.047 79.8326 161.757 80.2872C161.446 80.8489 161.126 81.342 160.797 81.7667L159.76 83.4649C159.419 84.0652 158.973 84.8007 158.422 85.6712C157.863 86.4733 157.208 87.479 156.457 88.6883C156.4 86.0504 156.068 84.1262 155.461 82.9156C154.846 81.6365 154.18 80.7814 153.464 80.3505C152.671 79.8597 151.765 79.714 150.746 79.9133C149.753 80.318 148.986 80.9899 148.444 81.929C147.953 82.7223 147.624 83.8258 147.456 85.2394C147.288 86.653 147.577 88.5132 148.323 90.8198C150.853 92.6557 152.959 94.1627 154.641 95.341C156.352 96.4806 157.739 97.4004 158.803 98.1004C160.051 98.8813 161.033 99.4873 161.749 99.9182C162.418 100.251 163.215 100.497 164.14 100.658C164.89 100.806 165.788 100.884 166.832 100.89C167.877 100.896 169.042 100.748 170.326 100.445C168.934 102.084 167.857 103.474 167.098 104.615C166.628 105.301 166.218 105.91 165.868 106.442C165.527 107.042 165.156 107.681 164.755 108.359C164.414 108.959 163.998 109.656 163.507 110.449C163.085 111.234 162.603 112.096 162.061 113.035C161.875 112.397 161.568 111.758 161.138 111.116C160.747 110.505 160.345 109.947 159.933 109.442C159.473 108.839 158.965 108.26 158.407 107.705C157.896 107.248 157.1 106.601 156.019 105.764C154.968 104.888 153.737 103.966 152.326 102.997C150.906 101.959 149.433 100.911 147.906 99.8525C146.34 98.764 144.856 97.7694 143.454 96.8689C142.051 95.9684 140.808 95.2217 139.723 94.6288C138.63 93.9675 137.83 93.5646 137.324 93.4201C136.712 93.2544 136.069 93.1274 135.396 93.0389C134.792 92.9417 134.124 92.8876 133.392 92.8763C132.621 92.8352 131.801 92.8178 130.931 92.824Z" fill="black"/>
</g>
<defs>
<clipPath id="clip0_4_29">
<rect width="240" height="240" fill="white" transform="translate(0 0.548492)"/>
</clipPath>
</defs>
</svg>
