<svg width="240" height="240" viewBox="0 0 240 240" fill="none" xmlns="http://www.w3.org/2000/svg">
<rect width="240" height="240" fill="white"/>
<path d="M90 167.5V176.5V184V191L88.5 199L87 205.5L84.5 211.5L81 219.5L78.5 226L77.5 230.5L75 228L68 223.5L61.5 220.5L56.5 217.5L53 214L50.5 208L48.5 202L44.5 197L40 193.5L35 190.5L28 187L23 184L19.5 180L17.5 175L14 168L9 161.5L16.5 158.5L25.5 155L34.5 152.5L42 150L51.5 149L62 148.5H71L76 150L81 155L89 163L90 167" stroke="black" stroke-width="7" stroke-linecap="round"/>
<path d="M148 76L146 75L143.5 72.5L139.5 69.5L135.5 66.5L131.5 64.5L126.5 62.5H121.5H116L110.5 63.5L105.5 65.5L101 67.5L97 70.5L68 100.5L65 105L62 109.5L61 115V119V123L62 128.5L63 133L65 138L91 165L97.5 170.5L103.5 174.5L107 176.5L111 178L114 178.5H117H119.5H122H125L128.5 178L131 177L133.5 176L136 174.5L137 173.5L174.5 136L176 133L176.5 130L177 127.5V124.5V121V117L176.5 113L175 109L173.5 106L171.5 102.5L169 98.5L166.5 95L164 93M148 76L147 60.5V52L148.5 45L150.5 38L153 30L158 16.5L161 12L163.5 14L166.5 15.5L170 17.5L174 19L177.5 21L181 23.5L183.5 26L185.5 30L187.5 34L189.5 38L192 42.5L195.5 45L199.5 48L204.5 50L209.5 52L213.5 55L217 58.5L220 62.5L221.5 66.5L223 71L225.5 75L228 78L224 80L219 82L212.5 84.5L204.5 87.5L199.5 89L194.5 90.5H190.5L185 92H178.5L170 93H164M148 76L158 87.5M164 93L160.5 90.5L158 87.5M158 87.5L164 84.5L169 82L174 79L179.5 75L184 72.5L190.5 68L195.5 64" stroke="black" stroke-width="7" stroke-linecap="round"/>
<path d="M83 158L80.8205 156H78.2051L74.2821 157.2L69.9231 159.6L66 162" stroke="black" stroke-width="7" stroke-linecap="round"/>
<path d="M175 44.5L172.5 47.5L170 51L167.5 54L165 58L163 61.5L160.5 65.5L158 70L155.5 75L154.5 79H150L158 87L165.5 94L169.5 99L172.5 104.5L175.5 110L177 116.5V122L176.5 128.5L176 130.5L175.5 133.5L173 137.5L170.5 140.5L139 171.5L136 174.5L130 177L126 178.5H122.5H117.5L112 178L108 177L103 174L98 171L94.5 168.5L91 165L87 161.5L84 158.5L83 165L80.5 169.5L78.5 173.5L76.5 176L74 180L72 183L69.5 187L67 190L65 193L62.5 197L61 199" stroke="black" stroke-width="7" stroke-linecap="round"/>
<path d="M119 80L124 80.5L128.5 82.5L130.5 84.5L133 86L135 85.5L136 84V81.5L134.5 79L131.5 77L125.5 74L120.5 73.5L115.5 74L111.5 75L107.5 77L105 79L103.5 80L103 82.5L104 85L106.5 86L108 85.5L109.5 84L112.5 81.5L115.5 80.5L119 80Z" fill="black"/>
<path d="M95 89L78.5 105.5L78 106.5V108.5L79 109.5L81 110.5L83 110L99.5 93.5V91.5L97.5 89.5L96.5 89H95Z" fill="black"/>
<path d="M54 165.5L52 166.5L45.5 171L39 176L38.5 177.5L39.5 179.5L41 181H43L57.5 170.5V168.5L57 167.5L56 166L54 165.5Z" fill="black" stroke="black"/>
</svg>
