<svg width="240" height="241" viewBox="0 0 240 241" fill="none" xmlns="http://www.w3.org/2000/svg">
<path d="M147 61.0485L148 76.5485L158 88.0485L160.5 91.0485L164 93.5485H170L178.5 92.5485H185L190.5 91.0485H194.5L199.5 89.5485L204.5 88.0485L212.5 85.0485L219 82.5485L224 80.5485L228 78.5485L225.5 75.5485L223 71.5485L221.5 67.0485L220 63.0485L217 59.0485L213.5 55.5485L209.5 52.5485L204.5 50.5485L199.5 48.5485L195.5 45.5485L192 43.0485L189.5 38.5485L187.5 34.5485L185.5 30.5485L183.5 26.5485L181 24.0485L177.5 21.5485L174 19.5485L170 18.0485L166.5 16.0485L163.5 14.5485L161 12.5485L158 17.0485L153 30.5485L150.5 38.5485L148.5 45.5485L147 52.5485V61.0485Z" fill="white"/>
<path d="M90 167.548V177.048V184.548V191.548L88.5 199.548L87 206.048L84.5 212.048L81 220.048L78.5 226.548L77.5 231.048L75 228.548L68 224.048L61.5 221.048L56.5 218.048L53 214.548L50.5 208.548L48.5 202.548L44.5 197.548L40 194.048L35 191.048L28 187.548L23 184.548L19.5 180.548L17.5 175.548L14 168.548L9 162.048L16.5 159.048L25.5 155.548L34.5 153.048L42 150.548L51.5 149.548L62 149.048H71L76 150.548L81 155.548L89 163.548L90 167.548Z" fill="white"/>
<path d="M148 76.5485L146 75.5485L143.5 73.0485L139.5 70.0485L135.5 67.0485L131.5 65.0485L126.5 63.0485H121.5H116L110.5 64.0485L105.5 66.0485L101 68.0485L97 71.0485L68 101.048L65 105.548L62 110.048L61 115.548V119.548V123.548L62 129.048L63 133.548L65 138.548L91 165.548L97.5 171.048L103.5 175.048L107 177.048L111 178.548L114 179.048H117H119.5H122H125L128.5 178.548L131 177.548L133.5 176.548L136 175.048L137 174.048L174.5 136.548L176 133.548L176.5 130.548L177 128.048V125.048V121.548V117.548L176.5 113.548L175 109.548L173.5 106.548L171.5 103.048L169 99.0485L166.5 95.5485L164 93.5485L160.5 91.0485L158 88.0485L148 76.5485Z" fill="white"/>
<path d="M148 76.5485L146 75.5485L143.5 73.0485L139.5 70.0485L135.5 67.0485L131.5 65.0485L126.5 63.0485H121.5H116L110.5 64.0485L105.5 66.0485L101 68.0485L97 71.0485L68 101.048L65 105.548L62 110.048L61 115.548V119.548V123.548L62 129.048L63 133.548L65 138.548L91 165.548L97.5 171.048L103.5 175.048L107 177.048L111 178.548L114 179.048H117H119.5H122H125L128.5 178.548L131 177.548L133.5 176.548L136 175.048L137 174.048L174.5 136.548L176 133.548L176.5 130.548L177 128.048V125.048V121.548V117.548L176.5 113.548L175 109.548L173.5 106.548L171.5 103.048L169 99.0485L166.5 95.5485L164 93.5485M148 76.5485L147 61.0485V52.5485L148.5 45.5485L150.5 38.5485L153 30.5485L158 17.0485L161 12.5485L163.5 14.5485L166.5 16.0485L170 18.0485L174 19.5485L177.5 21.5485L181 24.0485L183.5 26.5485L185.5 30.5485L187.5 34.5485L189.5 38.5485L192 43.0485L195.5 45.5485L199.5 48.5485L204.5 50.5485L209.5 52.5485L213.5 55.5485L217 59.0485L220 63.0485L221.5 67.0485L223 71.5485L225.5 75.5485L228 78.5485L224 80.5485L219 82.5485L212.5 85.0485L204.5 88.0485L199.5 89.5485L194.5 91.0485H190.5L185 92.5485H178.5L170 93.5485H164M148 76.5485L158 88.0485M164 93.5485L160.5 91.0485L158 88.0485M158 88.0485L164 85.0485L169 82.5485L174 79.5485L179.5 75.5485L184 73.0485L190.5 68.5485L195.5 64.5485M90 167.548V177.048V184.548V191.548L88.5 199.548L87 206.048L84.5 212.048L81 220.048L78.5 226.548L77.5 231.048L75 228.548L68 224.048L61.5 221.048L56.5 218.048L53 214.548L50.5 208.548L48.5 202.548L44.5 197.548L40 194.048L35 191.048L28 187.548L23 184.548L19.5 180.548L17.5 175.548L14 168.548L9 162.048L16.5 159.048L25.5 155.548L34.5 153.048L42 150.548L51.5 149.548L62 149.048H71L76 150.548L81 155.548L89 163.548L90 167.548Z" stroke="black" stroke-width="7" stroke-linecap="round"/>
<path d="M83 158.548L80.8205 156.548H78.2051L74.2821 157.748L69.9231 160.148L66 162.548" stroke="black" stroke-width="7" stroke-linecap="round"/>
<path d="M175 45.0485L172.5 48.0485L170 51.5485L167.5 54.5485L165 58.5485L163 62.0485L160.5 66.0485L158 70.5485L155.5 75.5485L154.5 79.5485H150L158 87.5485L165.5 94.5485L169.5 99.5485L172.5 105.048L175.5 110.548L177 117.048V122.548L176.5 129.048L176 131.048L175.5 134.048L173 138.048L170.5 141.048L139 172.048L136 175.048L130 177.548L126 179.048H122.5H117.5L112 178.548L108 177.548L103 174.548L98 171.548L94.5 169.048L91 165.548L87 162.048L84 159.048L83 165.548L80.5 170.048L78.5 174.048L76.5 176.548L74 180.548L72 183.548L69.5 187.548L67 190.548L65 193.548L62.5 197.548L61 199.548" stroke="black" stroke-width="7" stroke-linecap="round"/>
<path d="M119 80.5485L124 81.0485L128.5 83.0485L130.5 85.0485L133 86.5485L135 86.0485L136 84.5485V82.0485L134.5 79.5485L131.5 77.5485L125.5 74.5485L120.5 74.0485L115.5 74.5485L111.5 75.5485L107.5 77.5485L105 79.5485L103.5 80.5485L103 83.0485L104 85.5485L106.5 86.5485L108 86.0485L109.5 84.5485L112.5 82.0485L115.5 81.0485L119 80.5485Z" fill="black"/>
<path d="M95 89.5485L78.5 106.048L78 107.048V109.048L79 110.048L81 111.048L83 110.548L99.5 94.0485V92.0485L97.5 90.0485L96.5 89.5485H95Z" fill="black"/>
<path d="M54 166.048L52 167.048L45.5 171.548L39 176.548L38.5 178.048L39.5 180.048L41 181.548H43L57.5 171.048V169.048L57 168.048L56 166.548L54 166.048Z" fill="black" stroke="black"/>
</svg>
