<svg width="240" height="241" viewBox="0 0 240 241" fill="none" xmlns="http://www.w3.org/2000/svg">
<circle cx="120" cy="120.802" r="97.5" fill="white" stroke="black" stroke-width="7"/>
<path d="M152.975 98.535C150.876 90.5959 147.01 84.4355 141.376 80.0538C135.797 75.6721 129.086 73.4812 121.243 73.4812C113.565 73.4812 107.6 74.9129 103.347 77.7762C99.149 80.6394 97.0501 84.4572 97.0501 89.2293C97.0501 91.8757 97.3539 94.0665 97.9615 95.8018C98.569 97.5372 99.8118 99.2291 101.69 100.878C103.568 102.483 106.302 103.914 109.892 105.173C113.482 106.387 118.177 107.559 123.977 108.687C127.125 109.294 129.859 109.858 132.179 110.379C134.554 110.899 137.15 111.615 139.967 112.526C142.839 113.437 145.297 114.413 147.341 115.454C149.44 116.496 151.511 117.797 153.555 119.359C155.654 120.877 157.338 122.569 158.609 124.435C159.934 126.3 160.984 128.513 161.757 131.072C162.586 133.589 163 136.343 163 139.337C163 143.328 162.061 147.016 160.183 150.399C158.305 153.74 155.847 156.56 152.809 158.859C149.771 161.158 146.264 163.111 142.287 164.716C138.31 166.321 134.278 167.492 130.191 168.23C126.103 168.967 122.044 169.336 118.012 169.336C105.75 169.336 92.6866 166.842 78.8227 161.853C79.0989 157.167 79.237 154.282 79.237 153.198C79.237 146.126 78.4913 139.076 77 132.048C77.6076 131.745 78.2152 131.593 78.8227 131.593C79.596 131.593 80.2864 131.745 80.894 132.048C82.0539 137.645 83.9595 142.591 86.6108 146.885C89.3173 151.18 92.4104 154.586 95.8902 157.102C99.3699 159.575 102.96 161.44 106.661 162.699C110.417 163.913 114.2 164.521 118.012 164.521C126.683 164.521 133.339 162.764 137.979 159.25C142.674 155.692 145.021 151.007 145.021 145.193C145.021 139.337 143.281 134.933 139.802 131.983C136.377 128.99 129.804 126.56 120.083 124.695C107.931 122.309 98.431 118.795 91.5819 114.153C84.7881 109.468 81.3911 103.285 81.3911 95.6066C81.3911 91.572 82.2197 87.9712 83.8767 84.8042C85.589 81.5939 87.7707 79.0343 90.422 77.1254C93.1285 75.1732 96.2768 73.568 99.8671 72.3099C103.457 71.0084 106.992 70.119 110.472 69.6418C114.007 69.1212 117.597 68.8609 121.243 68.8609C132.179 68.8609 143.557 70.8566 155.378 74.8478C155.046 77.4074 154.881 80.0755 154.881 82.852C154.881 89.3594 155.543 94.5871 156.869 98.535C156.151 98.7519 155.543 98.8603 155.046 98.8603C154.494 98.8603 153.803 98.7519 152.975 98.535Z" fill="black"/>
<path d="M128.089 55.2372L128.089 183.811" stroke="black" stroke-width="7" stroke-linecap="round"/>
<path d="M113.614 55.2372L113.614 183.811" stroke="black" stroke-width="7" stroke-linecap="round"/>
</svg>
