<svg width="240" height="240" viewBox="0 0 240 240" fill="none" xmlns="http://www.w3.org/2000/svg">
<path d="M105 37L111 38L113 40L116.5 46L121 51L126 55L131.5 59L139 63L145.5 66L151.5 68.5L158.5 70.5L164 72.5L169 73.5L170.5 77.5L173.5 84L176 90.5L179.5 97L182.5 103.5L186 110L190 116L193.5 121.5L197.5 127L201.5 131L205 133.5V140.5V148V155.5L203.5 162.5L201.5 169.5L198.5 176L194.5 182.5L190 188.5L185 194.5L179 199.5L174 203.5L167.5 207.5L160.5 211L153.5 214.5L145 217.5L137.5 220.5L128.5 223L120 224.5L111.5 226.5L104.5 228L97 229.5L89 230.5L81.5 231.5H73.5H65L57.5 231L51 230.5L44.5 229.5L38 227.5L32 225.5L27 223L23.5 220.5L20.5 217L17 211.5L14.5 206L13 200L11.5 192L10.5 184V176.5V169V161.5L11.5 153.5L12.5 145L14 137L15.5 129L17 121L18.5 114L20.5 107.5L23 100L26 94L29.5 86L32 80L35 74.5L38 69L41.5 64.5L45 60.5L48.5 57L52.5 53L57.5 49.5L62 46.5L66.5 44L71.5 41.5L77 39.5L82 38L89.5 37H95H101.5H105Z" stroke="black" stroke-width="7"/>
<path d="M201.5 131L207.844 134C207.844 134 207.844 130.5 207.344 129.5C206.844 128.5 207 128 207 128L206.5 126L206 123L205.5 119.5L205 115L204.5 111.5L203.5 107.5L202.5 103.5L201 100L199 96L197.5 92.5L195.5 89L193.5 86L192.5 83L191.5 81H194.5L197.5 81.5L201 82L205.5 82.5L210 83H213H216.5L221 82.5L225.5 81L227.5 80L230.5 78.5L232.5 77L230.5 73L228 70.5L225.5 68L221.5 66L216 64L211 63L205.5 62L201 61.5L196 61H191.5H186.5L181 61.5L181.286 60.7143L183 56L184 50.5L184.5 46V41V36.5L183.5 31L182.5 26L180 21L177.5 18L175 15L171.5 10.5L169 7L167 9.5L164 15.5L161 19.5L159.5 23L158 28L157 33V36V41L158 46V50L155.5 48.5L153.5 46L150 43L147 41L142 38L137.5 36L133.5 34L130 33L126 31.5L122 31H117.5L113 31.5L109.5 33L111 38L113 40L116.5 46L121 51L126 55L131.5 59L139 63L145.5 66L151.5 68.5L158.5 70.5L164 72.5L169 73.5L170.5 77.5L173.5 84L176 90.5L179.5 97L182.5 103.5L186 110L190 116L193.5 121.5L197.5 127L201.5 131Z" fill="#1CCC2E"/>
<path d="M207.844 134L206.348 137.164L211.344 139.527V134H207.844ZM201.5 131L199.025 133.475L199.455 133.904L200.004 134.164L201.5 131ZM197.5 127L194.669 129.059L194.831 129.281L195.025 129.475L197.5 127ZM193.5 121.5L190.547 123.379L190.606 123.471L190.669 123.559L193.5 121.5ZM190 116L192.953 114.121L192.933 114.09L192.912 114.059L190 116ZM186 110L182.918 111.659L182.996 111.804L183.088 111.941L186 110ZM182.5 103.5L179.322 104.967L179.367 105.065L179.418 105.159L182.5 103.5ZM179.5 97L182.678 95.5333L182.633 95.4355L182.582 95.3407L179.5 97ZM176 90.5L172.733 91.7564L172.813 91.9638L172.918 92.1593L176 90.5ZM173.5 84L176.767 82.7436L176.726 82.637L176.678 82.5333L173.5 84ZM170.5 77.5L167.223 78.7289L167.268 78.8496L167.322 78.9667L170.5 77.5ZM169 73.5L172.277 72.2711L171.594 70.4495L169.686 70.068L169 73.5ZM164 72.5L162.804 75.7893L163.053 75.88L163.314 75.932L164 72.5ZM158.5 70.5L159.696 67.2107L159.58 67.1686L159.462 67.1347L158.5 70.5ZM151.5 68.5L150.154 71.7308L150.342 71.8093L150.538 71.8653L151.5 68.5ZM145.5 66L144.033 69.1779L144.093 69.2054L144.154 69.2308L145.5 66ZM139 63L137.353 66.0882L137.442 66.1356L137.533 66.1779L139 63ZM131.5 59L129.441 61.8306L129.638 61.9737L129.853 62.0882L131.5 59ZM126 55L123.814 57.733L123.876 57.7833L123.941 57.8306L126 55ZM121 51L118.398 53.3414L118.59 53.5542L118.814 53.733L121 51ZM116.5 46L113.477 47.7635L113.658 48.0741L113.898 48.3414L116.5 46ZM113 40L116.023 38.2365L115.795 37.8453L115.475 37.5251L113 40ZM111 38L107.648 39.0057L107.901 39.8509L108.525 40.4749L111 38ZM109.5 33L108.121 29.783L105.25 31.0136L106.148 34.0057L109.5 33ZM113 31.5L112.613 28.0214L112.098 28.0787L111.621 28.283L113 31.5ZM117.5 31V27.5H117.306L117.113 27.5214L117.5 31ZM122 31L122.434 27.527L122.218 27.5H122V31ZM126 31.5L127.229 28.2228L126.843 28.0781L126.434 28.027L126 31.5ZM130 33L128.771 36.2772L128.903 36.3266L129.038 36.3653L130 33ZM133.5 34L135.065 30.8695L134.774 30.724L134.462 30.6347L133.5 34ZM137.5 36L135.935 39.1305L136.006 39.1661L136.079 39.1983L137.5 36ZM142 38L143.801 34.9988L143.617 34.8886L143.421 34.8017L142 38ZM147 41L148.941 38.0878L148.872 38.0416L148.801 37.9988L147 41ZM150 43L152.278 40.3426L152.117 40.2051L151.941 40.0878L150 43ZM153.5 46L156.233 43.8136L156.028 43.5567L155.778 43.3426L153.5 46ZM155.5 48.5L152.767 50.6864L153.16 51.1776L153.699 51.5012L155.5 48.5ZM158 50L156.199 53.0012L161.5 56.1817V50H158ZM158 46H161.5V45.6534L161.432 45.3136L158 46ZM157 41H153.5V41.3466L153.568 41.6864L157 41ZM157 33L153.568 32.3136L153.5 32.6534V33H157ZM158 28L154.648 26.9943L154.6 27.1521L154.568 27.3136L158 28ZM159.5 23L156.283 21.6213L156.205 21.8039L156.148 21.9943L159.5 23ZM161 19.5L158.2 17.4L157.948 17.7356L157.783 18.1213L161 19.5ZM164 15.5L166.8 17.6L166.989 17.3475L167.13 17.0652L164 15.5ZM167 9.5L164.267 7.31357L164.035 7.60311L163.87 7.93475L167 9.5ZM169 7L171.848 4.96567L169.158 1.19967L166.267 4.81357L169 7ZM171.5 10.5L168.652 12.5343L168.693 12.5924L168.737 12.6488L171.5 10.5ZM175 15L172.237 17.1488L172.273 17.1953L172.311 17.2406L175 15ZM180 21L183.13 19.4348L182.949 19.0714L182.689 18.7594L180 21ZM182.5 26L185.932 25.3136L185.84 24.854L185.63 24.4348L182.5 26ZM183.5 31L186.944 30.3739L186.938 30.3437L186.932 30.3136L183.5 31ZM184.5 36.5H188V36.1844L187.944 35.8739L184.5 36.5ZM184.5 46L187.979 46.3865L188 46.1938V46H184.5ZM184 50.5L187.444 51.1261L187.465 51.0069L187.479 50.8865L184 50.5ZM190.5 54.1667L188.8 51.1071L188.676 51.1759L188.559 51.2545L190.5 54.1667ZM193.5 52.5L195.2 55.5595L195.279 55.5158L195.355 55.468L193.5 52.5ZM197.5 50L196.154 46.7692L195.889 46.8797L195.645 47.032L197.5 50ZM203.5 47.5L202.713 44.0896L202.426 44.1559L202.154 44.2692L203.5 47.5ZM210 46L209.683 42.5144L209.445 42.536L209.213 42.5896L210 46ZM215.5 45.5L215.887 42.0214L215.535 41.9824L215.183 42.0144L215.5 45.5ZM220 46L220.428 42.5262L220.407 42.5237L220.387 42.5214L220 46ZM196 61L196.348 57.5174L196.175 57.5H196V61ZM201 61.5L201.387 58.0214L201.367 58.0193L201.348 58.0174L201 61.5ZM205.5 62L206.126 58.5565L206.007 58.5348L205.887 58.5214L205.5 62ZM211 63L211.686 59.568L211.656 59.5619L211.626 59.5565L211 63ZM216 64L217.196 60.7107L216.947 60.62L216.686 60.568L216 64ZM221.5 66L223.065 62.8695L222.885 62.7795L222.696 62.7107L221.5 66ZM225.5 68L227.975 65.5251L227.573 65.1235L227.065 64.8695L225.5 68ZM230.5 73L233.63 71.4348L233.376 70.9267L232.975 70.5251L230.5 73ZM232.5 77L234.6 79.8L236.937 78.0474L235.63 75.4348L232.5 77ZM230.5 78.5L232.065 81.6305L232.348 81.4894L232.6 81.3L230.5 78.5ZM225.5 81L226.607 84.3204L226.843 84.2417L227.065 84.1305L225.5 81ZM221 82.5L221.387 85.9786L221.755 85.9376L222.107 85.8204L221 82.5ZM210 83L209.613 86.4786L209.806 86.5H210V83ZM201 82L200.505 85.4648L200.559 85.4726L200.613 85.4786L201 82ZM197.5 81.5L196.925 84.9524L196.965 84.9591L197.005 84.9648L197.5 81.5ZM194.5 81L195.075 77.5476L194.79 77.5H194.5V81ZM191.5 81V77.5H185.837L188.37 82.5652L191.5 81ZM192.5 83L195.82 81.8932C195.768 81.7361 195.705 81.5829 195.63 81.4348L192.5 83ZM193.5 86L190.18 87.1068L190.328 87.5515L190.588 87.9415L193.5 86ZM195.5 89L198.539 87.2635L198.479 87.1589L198.412 87.0585L195.5 89ZM197.5 92.5L200.717 91.1213L200.638 90.9373L200.539 90.7635L197.5 92.5ZM199 96L195.783 97.3787L195.824 97.4733L195.87 97.5652L199 96ZM201 100L204.217 98.6213L204.176 98.5267L204.13 98.4348L201 100ZM202.5 103.5L205.895 102.651L205.827 102.379L205.717 102.121L202.5 103.5ZM204.5 111.5L207.965 111.005L207.939 110.826L207.895 110.651L204.5 111.5ZM205 115L208.479 114.613L208.473 114.559L208.465 114.505L205 115ZM205.5 119.5L202.021 119.887L202.027 119.941L202.035 119.995L205.5 119.5ZM206 123L202.535 123.495L202.541 123.535L202.548 123.575L206 123ZM206.5 126L203.048 126.575L203.071 126.713L203.105 126.849L206.5 126ZM207 128L210.341 129.042L210.634 128.104L210.395 127.151L207 128ZM175.525 61.5251C174.158 62.892 174.158 65.108 175.525 66.4749C176.892 67.8417 179.108 67.8417 180.475 66.4749L175.525 61.5251ZM182.5 59.5L180.559 56.5878L180.27 56.7801L180.025 57.0251L182.5 59.5ZM183 56L186.289 57.1961L186.391 56.9176L186.444 56.6261L183 56ZM181 61.5L177.711 60.3039L175.827 65.4847L181.317 64.9856L181 61.5ZM186.5 61V57.5H186.341L186.183 57.5144L186.5 61ZM216.5 83V86.5H216.694L216.887 86.4786L216.5 83ZM209.34 130.836L202.996 127.836L200.004 134.164L206.348 137.164L209.34 130.836ZM203.975 128.525L199.975 124.525L195.025 129.475L199.025 133.475L203.975 128.525ZM200.331 124.941L196.331 119.441L190.669 123.559L194.669 129.059L200.331 124.941ZM196.453 119.621L192.953 114.121L187.047 117.879L190.547 123.379L196.453 119.621ZM192.912 114.059L188.912 108.059L183.088 111.941L187.088 117.941L192.912 114.059ZM189.082 108.341L185.582 101.841L179.418 105.159L182.918 111.659L189.082 108.341ZM185.678 102.033L182.678 95.5333L176.322 98.4667L179.322 104.967L185.678 102.033ZM182.582 95.3407L179.082 88.8407L172.918 92.1593L176.418 98.6593L182.582 95.3407ZM179.267 89.2436L176.767 82.7436L170.233 85.2564L172.733 91.7564L179.267 89.2436ZM176.678 82.5333L173.678 76.0333L167.322 78.9667L170.322 85.4667L176.678 82.5333ZM173.777 76.2711L172.277 72.2711L165.723 74.7289L167.223 78.7289L173.777 76.2711ZM169.686 70.068L164.686 69.068L163.314 75.932L168.314 76.932L169.686 70.068ZM165.196 69.2107L159.696 67.2107L157.304 73.7893L162.804 75.7893L165.196 69.2107ZM159.462 67.1347L152.462 65.1347L150.538 71.8653L157.538 73.8653L159.462 67.1347ZM152.846 65.2692L146.846 62.7692L144.154 69.2308L150.154 71.7308L152.846 65.2692ZM146.967 62.8221L140.467 59.8221L137.533 66.1779L144.033 69.1779L146.967 62.8221ZM140.647 59.9118L133.147 55.9118L129.853 62.0882L137.353 66.0882L140.647 59.9118ZM133.559 56.1694L128.059 52.1694L123.941 57.8306L129.441 61.8306L133.559 56.1694ZM128.186 52.267L123.186 48.267L118.814 53.733L123.814 57.733L128.186 52.267ZM123.602 48.6586L119.102 43.6586L113.898 48.3414L118.398 53.3414L123.602 48.6586ZM119.523 44.2365L116.023 38.2365L109.977 41.7635L113.477 47.7635L119.523 44.2365ZM115.475 37.5251L113.475 35.5251L108.525 40.4749L110.525 42.4749L115.475 37.5251ZM114.352 36.9943L112.852 31.9943L106.148 34.0057L107.648 39.0057L114.352 36.9943ZM110.879 36.217L114.379 34.717L111.621 28.283L108.121 29.783L110.879 36.217ZM113.387 34.9786L117.887 34.4786L117.113 27.5214L112.613 28.0214L113.387 34.9786ZM117.5 34.5H122V27.5H117.5V34.5ZM121.566 34.473L125.566 34.973L126.434 28.027L122.434 27.527L121.566 34.473ZM124.771 34.7772L128.771 36.2772L131.229 29.7228L127.229 28.2228L124.771 34.7772ZM129.038 36.3653L132.538 37.3653L134.462 30.6347L130.962 29.6347L129.038 36.3653ZM131.935 37.1305L135.935 39.1305L139.065 32.8695L135.065 30.8695L131.935 37.1305ZM136.079 39.1983L140.579 41.1983L143.421 34.8017L138.921 32.8017L136.079 39.1983ZM140.199 41.0012L145.199 44.0012L148.801 37.9988L143.801 34.9988L140.199 41.0012ZM145.059 43.9122L148.059 45.9122L151.941 40.0878L148.941 38.0878L145.059 43.9122ZM147.722 45.6574L151.222 48.6574L155.778 43.3426L152.278 40.3426L147.722 45.6574ZM150.767 48.1864L152.767 50.6864L158.233 46.3136L156.233 43.8136L150.767 48.1864ZM153.699 51.5012L156.199 53.0012L159.801 46.9988L157.301 45.4988L153.699 51.5012ZM161.5 50V46H154.5V50H161.5ZM161.432 45.3136L160.432 40.3136L153.568 41.6864L154.568 46.6864L161.432 45.3136ZM160.5 41V36H153.5V41H160.5ZM160.5 36V33H153.5V36H160.5ZM160.432 33.6864L161.432 28.6864L154.568 27.3136L153.568 32.3136L160.432 33.6864ZM161.352 29.0057L162.852 24.0057L156.148 21.9943L154.648 26.9943L161.352 29.0057ZM162.717 24.3787L164.217 20.8787L157.783 18.1213L156.283 21.6213L162.717 24.3787ZM163.8 21.6L166.8 17.6L161.2 13.4L158.2 17.4L163.8 21.6ZM167.13 17.0652L170.13 11.0652L163.87 7.93475L160.87 13.9348L167.13 17.0652ZM169.733 11.6864L171.733 9.18643L166.267 4.81357L164.267 7.31357L169.733 11.6864ZM166.152 9.03433L168.652 12.5343L174.348 8.46567L171.848 4.96567L166.152 9.03433ZM168.737 12.6488L172.237 17.1488L177.763 12.8512L174.263 8.35121L168.737 12.6488ZM172.311 17.2406L174.811 20.2406L180.189 15.7594L177.689 12.7594L172.311 17.2406ZM174.811 20.2406L177.311 23.2406L182.689 18.7594L180.189 15.7594L174.811 20.2406ZM176.87 22.5652L179.37 27.5652L185.63 24.4348L183.13 19.4348L176.87 22.5652ZM179.068 26.6864L180.068 31.6864L186.932 30.3136L185.932 25.3136L179.068 26.6864ZM180.056 31.6261L181.056 37.1261L187.944 35.8739L186.944 30.3739L180.056 31.6261ZM181 36.5V41H188V36.5H181ZM181 41V46H188V41H181ZM181.021 45.6135L180.521 50.1135L187.479 50.8865L187.979 46.3865L181.021 45.6135ZM192.2 57.2262L195.2 55.5595L191.8 49.4405L188.8 51.1071L192.2 57.2262ZM195.355 55.468L199.355 52.968L195.645 47.032L191.645 49.532L195.355 55.468ZM198.846 53.2308L204.846 50.7308L202.154 44.2692L196.154 46.7692L198.846 53.2308ZM204.287 50.9104L210.787 49.4104L209.213 42.5896L202.713 44.0896L204.287 50.9104ZM210.317 49.4856L215.817 48.9856L215.183 42.0144L209.683 42.5144L210.317 49.4856ZM215.113 48.9786L219.613 49.4786L220.387 42.5214L215.887 42.0214L215.113 48.9786ZM220 46C219.572 49.4738 219.573 49.4738 219.573 49.4738C219.573 49.4738 219.573 49.4738 219.573 49.4739C219.574 49.4739 219.574 49.474 219.575 49.4742C219.578 49.4744 219.581 49.4748 219.585 49.4753C219.593 49.4763 219.605 49.4778 219.622 49.4799C219.654 49.4839 219.702 49.4898 219.765 49.4975C219.89 49.513 220.072 49.5355 220.3 49.5637C220.756 49.6202 221.395 49.6997 222.128 49.7914C223.595 49.9751 225.43 50.2072 226.919 50.4029C227.665 50.5009 228.314 50.5884 228.782 50.6554C229.018 50.6892 229.191 50.7153 229.301 50.7333C229.359 50.7428 229.375 50.7461 229.364 50.744C229.36 50.7432 229.323 50.7359 229.267 50.7223C229.239 50.7154 229.186 50.7023 229.12 50.6827C229.069 50.6675 228.932 50.626 228.761 50.5539C228.676 50.518 228.523 50.4493 228.342 50.3417C228.204 50.2599 227.812 50.0196 227.441 49.5736C227.056 49.1107 226.344 47.9631 226.748 46.4395C227.102 45.1012 228.076 44.4808 228.381 44.3049C229.015 43.9389 229.614 43.8756 229.622 43.8744C229.782 43.8513 229.906 43.8451 229.957 43.8429C230.126 43.8355 230.243 43.8451 230.176 43.8414C230.121 43.8384 229.975 43.8277 229.692 43.8023C229.145 43.7533 228.237 43.663 226.865 43.5191L226.135 50.4809C227.513 50.6254 228.464 50.7203 229.066 50.7743C229.357 50.8004 229.608 50.8208 229.794 50.831C229.847 50.8339 230.046 50.8456 230.261 50.8362C230.323 50.8335 230.457 50.8265 230.623 50.8024C230.639 50.8002 231.242 50.7357 231.879 50.3682C232.185 50.1915 233.16 49.5703 233.515 48.2311C233.918 46.7066 233.207 45.5581 232.82 45.0942C232.448 44.6472 232.055 44.4059 231.916 44.3229C231.732 44.2141 231.576 44.1443 231.489 44.1071C231.199 43.9845 230.946 43.9266 230.923 43.9211C230.84 43.9007 230.766 43.8856 230.719 43.8763C230.621 43.857 230.52 43.8397 230.433 43.8254C230.252 43.7959 230.025 43.7619 229.773 43.7259C229.265 43.6532 228.585 43.5616 227.831 43.4625C226.32 43.264 224.468 43.0297 222.997 42.8456C222.261 42.7535 221.619 42.6736 221.161 42.6169C220.932 42.5885 220.749 42.5658 220.623 42.5503C220.56 42.5425 220.511 42.5365 220.478 42.5324C220.462 42.5304 220.449 42.5289 220.44 42.5278C220.436 42.5273 220.433 42.5269 220.431 42.5266C220.43 42.5265 220.429 42.5264 220.428 42.5263C220.428 42.5263 220.428 42.5263 220.428 42.5262C220.428 42.5262 220.428 42.5262 220 46ZM191.5 64.5H196V57.5H191.5V64.5ZM195.652 64.4826L200.652 64.9826L201.348 58.0174L196.348 57.5174L195.652 64.4826ZM200.613 64.9786L205.113 65.4786L205.887 58.5214L201.387 58.0214L200.613 64.9786ZM204.874 65.4435L210.374 66.4435L211.626 59.5565L206.126 58.5565L204.874 65.4435ZM210.314 66.432L215.314 67.432L216.686 60.568L211.686 59.568L210.314 66.432ZM214.804 67.2893L220.304 69.2893L222.696 62.7107L217.196 60.7107L214.804 67.2893ZM219.935 69.1305L223.935 71.1305L227.065 64.8695L223.065 62.8695L219.935 69.1305ZM227.37 74.5652L229.37 78.5652L235.63 75.4348L233.63 71.4348L227.37 74.5652ZM230.4 74.2L228.4 75.7L232.6 81.3L234.6 79.8L230.4 74.2ZM228.935 75.3695L225.935 76.8695L229.065 83.1305L232.065 81.6305L228.935 75.3695ZM225.935 76.8695L223.935 77.8695L227.065 84.1305L229.065 83.1305L225.935 76.8695ZM224.393 77.6796L219.893 79.1796L222.107 85.8204L226.607 84.3204L224.393 77.6796ZM213 79.5H210V86.5H213V79.5ZM210.387 79.5214L205.887 79.0214L205.113 85.9786L209.613 86.4786L210.387 79.5214ZM205.887 79.0214L201.387 78.5214L200.613 85.4786L205.113 85.9786L205.887 79.0214ZM201.495 78.5352L197.995 78.0352L197.005 84.9648L200.505 85.4648L201.495 78.5352ZM198.075 78.0476L195.075 77.5476L193.925 84.4524L196.925 84.9524L198.075 78.0476ZM194.5 77.5H191.5V84.5H194.5V77.5ZM188.37 82.5652L189.37 84.5652L195.63 81.4348L194.63 79.4348L188.37 82.5652ZM189.18 84.1068L190.18 87.1068L196.82 84.8932L195.82 81.8932L189.18 84.1068ZM190.588 87.9415L192.588 90.9415L198.412 87.0585L196.412 84.0585L190.588 87.9415ZM192.461 90.7365L194.461 94.2365L200.539 90.7635L198.539 87.2635L192.461 90.7365ZM194.283 93.8787L195.783 97.3787L202.217 94.6213L200.717 91.1213L194.283 93.8787ZM195.87 97.5652L197.87 101.565L204.13 98.4348L202.13 94.4348L195.87 97.5652ZM197.783 101.379L199.283 104.879L205.717 102.121L204.217 98.6213L197.783 101.379ZM199.105 104.349L200.105 108.349L206.895 106.651L205.895 102.651L199.105 104.349ZM200.105 108.349L201.105 112.349L207.895 110.651L206.895 106.651L200.105 108.349ZM201.035 111.995L201.535 115.495L208.465 114.505L207.965 111.005L201.035 111.995ZM201.521 115.387L202.021 119.887L208.979 119.113L208.479 114.613L201.521 115.387ZM202.035 119.995L202.535 123.495L209.465 122.505L208.965 119.005L202.035 119.995ZM202.548 123.575L203.048 126.575L209.952 125.425L209.452 122.425L202.548 123.575ZM203.105 126.849L203.605 128.849L210.395 127.151L209.895 125.151L203.105 126.849ZM207 128C203.659 126.958 203.658 126.96 203.657 126.963C203.657 126.963 203.656 126.966 203.656 126.968C203.655 126.971 203.654 126.974 203.653 126.977C203.651 126.984 203.649 126.99 203.647 126.997C203.643 127.01 203.639 127.024 203.635 127.037C203.627 127.065 203.619 127.093 203.612 127.121C203.597 127.179 203.583 127.239 203.569 127.303C203.543 127.43 203.52 127.567 203.504 127.715C203.472 128.012 203.466 128.342 203.5 128.703C203.568 129.43 203.792 130.222 204.214 131.065L210.475 127.935C210.396 127.778 210.448 127.82 210.469 128.047C210.48 128.158 210.482 128.301 210.463 128.473C210.454 128.558 210.439 128.649 210.419 128.744C210.409 128.792 210.398 128.841 210.385 128.89C210.378 128.915 210.371 128.94 210.364 128.966C210.361 128.978 210.357 128.991 210.353 129.004C210.351 129.01 210.349 129.016 210.347 129.023C210.346 129.026 210.345 129.029 210.344 129.033C210.344 129.034 210.343 129.037 210.343 129.037C210.342 129.04 210.341 129.042 207 128ZM204.214 131.065C204.07 130.777 204.105 130.698 204.172 131.144C204.221 131.473 204.26 131.893 204.288 132.343C204.316 132.784 204.33 133.204 204.337 133.517C204.341 133.672 204.342 133.798 204.343 133.883C204.344 133.925 204.344 133.957 204.344 133.977C204.344 133.987 204.344 133.994 204.344 133.998C204.344 134 204.344 134.001 204.344 134.001C204.344 134.002 204.344 134.002 204.344 134.001C204.344 134.001 204.344 134.001 204.344 134.001C204.344 134.001 204.344 134.001 204.344 134C204.344 134 204.344 134 207.844 134C211.344 134 211.344 134 211.344 133.999C211.344 133.999 211.344 133.999 211.344 133.999C211.344 133.998 211.344 133.998 211.344 133.997C211.344 133.996 211.344 133.995 211.344 133.994C211.344 133.99 211.344 133.987 211.344 133.982C211.344 133.973 211.344 133.96 211.344 133.944C211.344 133.912 211.343 133.868 211.343 133.813C211.342 133.702 211.34 133.547 211.335 133.358C211.327 132.984 211.31 132.466 211.275 131.907C211.24 131.357 211.186 130.714 211.094 130.106C211.021 129.615 210.869 128.723 210.475 127.935L204.214 131.065ZM223.025 70.4749L225.525 72.9749L230.475 68.0251L227.975 65.5251L223.025 70.4749ZM225.525 72.9749L228.025 75.4749L232.975 70.5251L230.475 68.0251L225.525 72.9749ZM180.475 66.4749L183.761 63.1892L178.811 58.2394L175.525 61.5251L180.475 66.4749ZM183.761 63.1892L184.975 61.9749L180.025 57.0251L178.811 58.2394L183.761 63.1892ZM184.441 62.4122L192.441 57.0788L188.559 51.2545L180.559 56.5878L184.441 62.4122ZM180.556 49.8739L179.556 55.3739L186.444 56.6261L187.444 51.1261L180.556 49.8739ZM179.711 54.8039L177.996 59.5182L184.575 61.9104L186.289 57.1961L179.711 54.8039ZM177.996 59.5182L177.711 60.3039L184.289 62.6961L184.575 61.9104L177.996 59.5182ZM181.317 64.9856L186.817 64.4856L186.183 57.5144L180.683 58.0144L181.317 64.9856ZM186.5 64.5H191.5V57.5H186.5V64.5ZM220.613 79.0214L216.113 79.5214L216.887 86.4786L221.387 85.9786L220.613 79.0214ZM216.5 79.5H213V86.5H216.5V79.5Z" fill="black"/>
<path d="M135 99.7339L140.775 94.041" stroke="black" stroke-width="7" stroke-linecap="round"/>
<path d="M164 129.734L169.775 124.041" stroke="black" stroke-width="7" stroke-linecap="round"/>
<path d="M125 139.734L130.775 134.041" stroke="black" stroke-width="7" stroke-linecap="round"/>
<path d="M155 168.734L160.775 163.041" stroke="black" stroke-width="7" stroke-linecap="round"/>
<path d="M115 178.734L120.775 173.041" stroke="black" stroke-width="7" stroke-linecap="round"/>
<path d="M86 148.734L91.7749 143.041" stroke="black" stroke-width="7" stroke-linecap="round"/>
<path d="M47 158.734L52.7749 153.041" stroke="black" stroke-width="7" stroke-linecap="round"/>
<path d="M76 188.734L81.7749 183.041" stroke="black" stroke-width="7" stroke-linecap="round"/>
<path d="M37 197.734L42.7749 192.041" stroke="black" stroke-width="7" stroke-linecap="round"/>
<path d="M105.124 70.1246L110.899 64.4317" stroke="black" stroke-width="7" stroke-linecap="round"/>
<path d="M66 79.7339L71.7749 74.041" stroke="black" stroke-width="7" stroke-linecap="round"/>
<path d="M95 109.734L100.775 104.041" stroke="black" stroke-width="7" stroke-linecap="round"/>
<path d="M56 119.734L61.7749 114.041" stroke="black" stroke-width="7" stroke-linecap="round"/>
</svg>
