<svg width="240" height="241" viewBox="0 0 240 241" fill="none" xmlns="http://www.w3.org/2000/svg">
<path d="M219.662 150.033C220.19 149.755 224.499 148.371 223.206 146.62C220.945 140.45 217.543 132.628 215.894 126.287C214.098 119.385 211.393 112.751 209.197 105.973C206.47 97.5574 203.875 89.1649 200.598 80.9393C199.871 79.1145 199.098 77.2248 197.93 75.6229C191.673 67.0412 183.876 60.3056 174.855 54.7305C163.267 47.5691 150.732 41.7865 138.704 35.405C133.824 32.8159 128.919 30.0806 123.781 28.018C122.804 27.6261 121.532 27.0783 120.423 27.4211C118.998 27.8615 117.49 29.4295 116.431 30.4057C113.745 32.8813 111.41 35.5879 108.447 37.7741C98.8823 44.8322 88.1647 50.2245 78.4889 57.1742C76.3795 58.6893 74.2896 60.2282 72.2166 61.7876C58.3485 72.2192 45.2284 83.5641 31.9905 94.7818C30.6904 95.8835 29.3891 96.984 28.0859 98.0823C24.9037 100.764 21.675 103.403 18.5724 106.178C18.0135 106.678 16.8998 107.494 16.651 108.323C16.471 108.923 16.5787 109.741 16.6604 110.361L16.6697 110.431L16.7274 110.871C17.8571 119.486 18.9832 128.072 20.5124 136.659C22.9168 150.159 26.3144 163.529 30.7721 176.503C31.3844 178.286 32.8209 184.752 34.9133 185.868C36.0676 186.483 37.5474 186.649 38.756 187.192C44.2966 189.681 49.4789 193.15 54.6305 196.333C65.4871 203.04 75.8215 210.458 86.1557 217.934C90.4113 221.012 94.7247 224.884 99.3813 227.391C100.259 227.864 102.42 226.469 103.075 226.16C108.785 223.473 114.572 220.83 120.05 217.691C142.346 204.914 162.442 188.568 182.97 173.239C194.637 164.527 206.78 156.813 219.662 150.033Z" fill="white"/>
<path d="M148.553 98.6046C169.975 114.259 194.699 125.008 216.08 140.763C218.269 142.375 221.534 144.355 223.206 146.62M148.553 98.6046L127.217 37.7741M148.553 98.6046C138.991 104.418 125.129 113.194 110.447 123.077M223.206 146.62C224.499 148.371 220.19 149.755 219.662 150.033C206.78 156.813 194.637 164.527 182.97 173.239C162.442 188.568 142.346 204.914 120.05 217.691C114.572 220.83 108.785 223.473 103.075 226.16C102.419 226.469 100.259 227.864 99.3813 227.391C94.7247 224.884 90.4113 221.012 86.1557 217.934C75.8215 210.458 65.4871 203.04 54.6305 196.333C49.4789 193.15 44.2966 189.681 38.756 187.192C37.5474 186.649 36.0676 186.483 34.9133 185.868C32.8209 184.752 31.3844 178.286 30.7721 176.503C26.3144 163.529 22.9168 150.159 20.5124 136.659C18.9571 127.926 17.8189 119.193 16.6697 110.431C16.5874 109.804 16.4641 108.946 16.651 108.323C16.8998 107.494 18.0135 106.678 18.5724 106.178C21.6751 103.403 24.9037 100.764 28.0859 98.0823C44.6421 84.1297 60.8825 69.82 78.4889 57.1742C88.1647 50.2245 98.8823 44.8322 108.447 37.7741C111.41 35.5879 113.745 32.8813 116.431 30.4057C117.49 29.4295 118.998 27.8615 120.423 27.4211C121.532 27.0783 122.804 27.6261 123.781 28.018C128.919 30.0806 133.824 32.8159 138.704 35.405C150.732 41.7865 163.267 47.5691 174.855 54.7305C183.876 60.3056 191.673 67.0412 197.93 75.6229C199.098 77.2248 199.871 79.1145 200.598 80.9393C203.875 89.1649 206.47 97.5574 209.197 105.973C211.393 112.751 214.098 119.385 215.894 126.287C217.543 132.628 220.945 140.45 223.206 146.62ZM46.2166 173.239C52.929 165.916 63.4417 157.076 75.447 147.949M72.2166 61.7876C80.5731 61.5887 95.2872 64.6808 90.6438 76.265C88.8181 80.8196 85.35 84.6494 82.0435 88.1686C77.5795 92.9198 72.7728 97.4557 67.8406 101.717C62.8342 106.042 56.1623 112.032 48.9228 110.695C43.5033 109.695 41.1215 106.202 37.7468 102.43C36.165 100.662 33.2166 96.7818 31.9905 94.7818" stroke="black" stroke-width="7" stroke-linecap="round"/>
<path d="M126.675 187.37C123.518 188.651 120.219 190.282 116.91 191.227C108.488 186.794 101.824 178.281 95.6061 171.29C88.0369 162.78 79.0835 154.811 74.069 144.427C72.4197 141.012 72.5004 140.766 74.7384 137.85C78.476 132.978 82.3023 127.839 87.9226 124.985C95.0368 121.374 105.218 122.002 112.807 123.821C119.406 125.403 125.397 128.631 131.142 132.16C139.997 137.598 148.53 143.903 155.997 151.15C158.956 154.022 165.307 159.36 163.841 164.276C162.548 168.612 158.167 171.683 154.571 173.968C145.844 179.513 136.223 183.497 126.675 187.37Z" fill="white" stroke="black" stroke-width="3" stroke-linecap="round"/>
<path d="M91.7933 177.984C85.889 171.835 79.2498 166.237 73.9524 159.532C69.8109 165.054 62.9801 173.335 62.3253 180.473C61.4516 189.996 74.0369 192.745 80.9083 193.846C87.0517 194.831 94.0357 195.818 100.059 193.715C102.211 192.964 102.33 191.985 101.398 190.121C99.1286 185.582 95.2563 181.591 91.7933 177.984Z" fill="white" stroke="black" stroke-width="3" stroke-linecap="round"/>
<path d="M153.582 117.884C159.946 119.798 166.557 122.748 171.757 126.935C178.352 132.245 168.119 133.666 164.176 133.033C158.812 132.171 151.299 128.692 148.867 123.385C147.336 120.044 152.187 119.865 154.106 119.718" stroke="black" stroke-width="3" stroke-linecap="round"/>
<path d="M193.658 137.006C194.062 138.491 194.228 139.805 193.105 141.095C192.011 142.351 190.077 142.701 188.827 141.4C186.509 138.988 192.235 136.694 193.658 135.958" stroke="black" stroke-width="3" stroke-linecap="round"/>
<path d="M98.0509 55.2808C100.577 55.2808 102.823 57.4712 103.872 59.7046C104.87 61.8314 103.31 67.7481 100.699 68.5232C97.6949 69.4152 95.4317 62.1055 94.8203 60.2867C94.2285 58.5261 93.9379 56.8581 94.1218 55.0188" stroke="black" stroke-width="3" stroke-linecap="round"/>
</svg>
