<svg width="240" height="241" viewBox="0 0 240 241" fill="none" xmlns="http://www.w3.org/2000/svg">
<path d="M20.2258 99.5039C19.6471 117.558 23.7386 165.859 26.2984 183.65C44.6556 183.65 62.7789 188.825 80.598 192.676C97.3408 196.294 113.746 201.142 130.384 205.176C134.186 206.097 138.416 207.874 142.223 206.239C153.907 201.219 164.566 192.913 175.256 186.154C186.372 179.126 199.882 172.529 209.046 162.856C210.923 160.875 210.497 123.273 210.747 121.124C212.737 104.013 214.524 86.9065 217.599 69.9439C217.958 67.9638 221.63 58.631 218.71 57.0897C210.679 52.8512 202.253 49.9057 193.356 48.0634C170.855 43.4044 147.786 39.2941 124.997 36.367C118.604 35.5459 109.907 33.6159 103.424 35.4928C94.5319 38.0667 86.2677 43.144 78.4714 47.9689C61.7995 58.2866 45.5325 69.9462 31.1188 83.2707C26.1466 87.8671 20.4553 92.3413 20.2258 99.5039Z" fill="#FAF9FC" stroke="black" stroke-width="7" stroke-linecap="round"/>
<path d="M40.843 99.1528C58.1808 101.77 75.1239 105.563 92.1942 109.554C101.93 111.831 111.705 113.928 121.558 115.631C124.402 116.122 127.321 116.76 130.209 116.982C130.876 117.034 131.405 116.414 131.869 116.03C137.694 111.209 143.459 106.323 149.364 101.599C164.782 89.2643 180.237 76.7862 196.789 66.0172" stroke="black" stroke-width="7" stroke-linecap="round"/>
<path d="M132.14 116.589C132.095 119.059 132.034 121.502 132.114 123.979C132.473 135.105 134.09 145.886 135.384 156.908" stroke="black" stroke-width="7" stroke-linecap="round"/>
<path d="M110.593 87.1125C112.019 87.9785 113.378 88.4068 114.928 88.9706" stroke="#DFC9C9" stroke-width="7" stroke-linecap="round"/>
<path d="M130.412 64.8157L132.27 66.3641" stroke="#DFC9C9" stroke-width="7" stroke-linecap="round"/>
<path d="M132.58 82.7768L133.199 85.2542" stroke="#DFC9C9" stroke-width="7" stroke-linecap="round"/>
<path d="M109.044 55.5253C109.025 56.6978 108.888 57.7785 108.735 58.9317" stroke="#DFC9C9" stroke-width="7" stroke-linecap="round"/>
<path d="M83.9608 79.3704L83.0317 80.9188" stroke="#DFC9C9" stroke-width="7" stroke-linecap="round"/>
<path d="M94.1799 65.1252C95.1135 66.4273 96.1534 67.4083 97.2767 68.5317" stroke="#DFC9C9" stroke-width="7" stroke-linecap="round"/>
<path d="M155.806 55.8348C156.536 56.1305 157.254 56.444 157.973 56.7638" stroke="#DFC9C9" stroke-width="7" stroke-linecap="round"/>
<path d="M151.161 70.08C152.428 70.5272 153.578 70.7654 154.877 71.009" stroke="#DFC9C9" stroke-width="7" stroke-linecap="round"/>
<path d="M145.586 86.8026L148.374 88.0414" stroke="#DFC9C9" stroke-width="7" stroke-linecap="round"/>
<path d="M128.244 98.8801V101.358" stroke="#DFC9C9" stroke-width="7" stroke-linecap="round"/>
<path d="M50.5156 84.0156C51.6702 84.3235 52.7498 84.4786 53.9221 84.635" stroke="#DFC9C9" stroke-width="7" stroke-linecap="round"/>
<path d="M93.8704 90.2091V92.3769" stroke="#DFC9C9" stroke-width="7" stroke-linecap="round"/>
<path d="M126.077 53.6671C127.526 53.4808 128.967 53.2644 130.412 53.0477" stroke="#DFC9C9" stroke-width="7" stroke-linecap="round"/>
<path d="M76.5283 64.5058L78.6961 63.2671" stroke="#DFC9C9" stroke-width="7" stroke-linecap="round"/>
<path d="M100.374 45.6156L102.541 45.3059" stroke="#DFC9C9" stroke-width="7" stroke-linecap="round"/>
<path d="M170.98 62.9576C171.43 64.2372 171.979 65.4367 172.529 66.6737" stroke="#DFC9C9" stroke-width="7" stroke-linecap="round"/>
<path d="M190.18 54.5964L192.348 54.9061" stroke="#DFC9C9" stroke-width="7" stroke-linecap="round"/>
<path d="M179.341 110.028C178.985 110.951 178.702 111.873 178.412 112.815" stroke="#EFE8E8" stroke-width="7" stroke-linecap="round"/>
<path d="M149.303 130.158L151.47 135.112" stroke="#EFE8E8" stroke-width="7" stroke-linecap="round"/>
<path d="M158.903 108.48L159.522 110.028" stroke="#EFE8E8" stroke-width="7" stroke-linecap="round"/>
<path d="M169.741 128.919L169.432 130.777" stroke="#EFE8E8" stroke-width="7" stroke-linecap="round"/>
<path d="M199.78 84.9445L198.851 88.9703" stroke="#EFE8E8" stroke-width="7" stroke-linecap="round"/>
<path d="M195.754 112.506C195.949 113.85 196.162 115.19 196.373 116.532" stroke="#EFE8E8" stroke-width="7" stroke-linecap="round"/>
<path d="M187.083 139.138L188.941 140.067" stroke="#EFE8E8" stroke-width="7" stroke-linecap="round"/>
<path d="M162.619 149.977L161.69 152.454" stroke="#EFE8E8" stroke-width="7" stroke-linecap="round"/>
<path d="M147.754 171.035C148.702 171.202 149.611 171.422 150.541 171.655" stroke="#EFE8E8" stroke-width="7" stroke-linecap="round"/>
<path d="M185.535 160.815C185.345 162.676 185.13 164.532 184.916 166.39" stroke="#EFE8E8" stroke-width="7" stroke-linecap="round"/>
<path d="M169.741 170.416L170.051 172.893" stroke="#EFE8E8" stroke-width="7" stroke-linecap="round"/>
<path d="M200.709 149.358C201.43 150.88 201.977 152.428 202.567 154.003" stroke="#EFE8E8" stroke-width="7" stroke-linecap="round"/>
<path d="M149.303 190.545L148.993 192.093" stroke="#EFE8E8" stroke-width="7" stroke-linecap="round"/>
</svg>
