<svg width="240" height="241" viewBox="0 0 240 241" fill="none" xmlns="http://www.w3.org/2000/svg">
<circle cx="120" cy="120.802" r="97.5" fill="white" stroke="black" stroke-width="7"/>
<circle cx="120" cy="120.802" r="80.5" fill="white" stroke="black" stroke-width="7"/>
<path d="M122.927 72.5184L131.305 98.3056C132.443 101.808 135.707 104.179 139.389 104.179H166.504C167.957 104.179 168.561 106.038 167.385 106.892L145.449 122.83C142.47 124.994 141.224 128.831 142.362 132.333L150.74 158.12C151.189 159.502 149.608 160.652 148.432 159.797L126.496 143.86C123.517 141.696 119.483 141.696 116.504 143.86L94.5679 159.797C93.3923 160.652 91.8106 159.502 92.2596 158.12L100.638 132.333C101.776 128.831 100.53 124.994 97.5506 122.83L75.6146 106.892C74.4391 106.038 75.0432 104.179 76.4963 104.179H103.611C107.293 104.179 110.557 101.808 111.695 98.3056L120.073 72.5183C120.522 71.1364 122.478 71.1364 122.927 72.5184Z" fill="white" stroke="black" stroke-width="7"/>
</svg>
